<svg xmlns="http://www.w3.org/2000/svg" viewBox="0 0 128 128">
  <defs>
    <radialGradient id="silver" cx="30%" cy="22%" r="78%">
      <stop offset="0%" stop-color="#ffffff" />
      <stop offset="48%" stop-color="#d5dbe2" />
      <stop offset="100%" stop-color="#9ea7b3" />
    </radialGradient>
    <linearGradient id="rim" x1="0" y1="0" x2="1" y2="1">
      <stop offset="0%" stop-color="#f3f6fb" />
      <stop offset="100%" stop-color="#8f99a6" />
    </linearGradient>
  </defs>
  <circle cx="64" cy="64" r="58" fill="url(#rim)" />
  <circle cx="64" cy="64" r="52" fill="url(#silver)" stroke="#7a8593" stroke-width="2.6" />
  <circle cx="64" cy="64" r="43" fill="none" stroke="#7c8797" stroke-opacity="0.45" stroke-width="2.5" />
  <circle cx="64" cy="64" r="36" fill="none" stroke="#eff3f8" stroke-opacity="0.8" stroke-width="1.8" />
  <path d="M64 30c3 0 5.3 2.4 5.3 5.4v3.9c6.7 1.1 12.2 5.5 12.2 12.3h-9.6c0-3.1-2.8-4.8-7.7-4.8-4.4 0-7 1.6-7 4.2 0 2.3 1.9 3.4 8.8 4.8 10.4 2.1 15.8 5.4 15.8 13.7 0 7.3-5.7 11.8-12.9 12.9v4c0 3-2.4 5.4-5.3 5.4-3 0-5.3-2.4-5.3-5.4v-3.8c-7.4-1-13.9-5.1-13.9-12.8H54c0 2.9 2.7 4.8 8.8 4.8 5.1 0 8.2-1.6 8.2-4.5 0-2.7-2.4-3.8-9.3-5.3-9.7-2.1-15.1-5.2-15.1-13.1 0-7.1 5.5-11.8 12.1-13v-4.1c0-3 2.4-5.4 5.3-5.4z" fill="#5f6b79" />
</svg>
